<mxfile host="app.diagrams.net" modified="2020-06-29T03:32:21.312Z" agent="5.0 (Macintosh; Intel Mac OS X 10_15_5) AppleWebKit/605.1.15 (KHTML, like Gecko) Version/13.1.1 Safari/605.1.15" etag="iYembeV5OsvkgTbZCYxG" version="13.3.5" type="github">
  <diagram id="1SAhC6a8pihXOCSOTlZ3" name="Page-1">
    <mxGraphModel dx="1070" dy="563" grid="1" gridSize="10" guides="1" tooltips="1" connect="1" arrows="1" fold="1" page="1" pageScale="1" pageWidth="827" pageHeight="1169" math="0" shadow="0">
      <root>
        <mxCell id="0" />
        <mxCell id="1" parent="0" />
        <mxCell id="E4ltTXrUCnNlTAGxs-kE-1" value="Interface" style="whiteSpace=wrap;html=1;align=center;" parent="1" vertex="1">
          <mxGeometry x="220" y="270" width="100" height="40" as="geometry" />
        </mxCell>
        <mxCell id="E4ltTXrUCnNlTAGxs-kE-2" value="Interface" style="whiteSpace=wrap;html=1;align=center;" parent="1" vertex="1">
          <mxGeometry x="480" y="270" width="100" height="40" as="geometry" />
        </mxCell>
        <mxCell id="E4ltTXrUCnNlTAGxs-kE-3" value="Class" style="whiteSpace=wrap;html=1;align=center;" parent="1" vertex="1">
          <mxGeometry x="374" y="400" width="100" height="40" as="geometry" />
        </mxCell>
        <mxCell id="E4ltTXrUCnNlTAGxs-kE-6" value="Implements" style="endArrow=block;endSize=16;endFill=0;html=1;entryX=0.5;entryY=1;entryDx=0;entryDy=0;exitX=0.5;exitY=0;exitDx=0;exitDy=0;" parent="1" source="E4ltTXrUCnNlTAGxs-kE-3" target="E4ltTXrUCnNlTAGxs-kE-2" edge="1">
          <mxGeometry width="160" relative="1" as="geometry">
            <mxPoint x="424" y="390" as="sourcePoint" />
            <mxPoint x="500" y="450" as="targetPoint" />
          </mxGeometry>
        </mxCell>
        <mxCell id="E4ltTXrUCnNlTAGxs-kE-8" value="Implements" style="endArrow=block;endSize=16;endFill=0;html=1;entryX=0.42;entryY=1.075;entryDx=0;entryDy=0;entryPerimeter=0;" parent="1" target="E4ltTXrUCnNlTAGxs-kE-1" edge="1">
          <mxGeometry width="160" relative="1" as="geometry">
            <mxPoint x="420" y="400" as="sourcePoint" />
            <mxPoint x="434" y="320" as="targetPoint" />
          </mxGeometry>
        </mxCell>
        <mxCell id="3prIBJ_nW1wlTP4brAZd-1" value="Interface" style="whiteSpace=wrap;html=1;align=center;" vertex="1" parent="1">
          <mxGeometry x="364" y="130" width="100" height="40" as="geometry" />
        </mxCell>
        <mxCell id="3prIBJ_nW1wlTP4brAZd-2" value="Extends" style="endArrow=block;endSize=16;endFill=0;html=1;entryX=0.5;entryY=1;entryDx=0;entryDy=0;exitX=0.5;exitY=0;exitDx=0;exitDy=0;" edge="1" parent="1" source="E4ltTXrUCnNlTAGxs-kE-1" target="3prIBJ_nW1wlTP4brAZd-1">
          <mxGeometry width="160" relative="1" as="geometry">
            <mxPoint x="288" y="270" as="sourcePoint" />
            <mxPoint x="130" y="183" as="targetPoint" />
          </mxGeometry>
        </mxCell>
        <mxCell id="3prIBJ_nW1wlTP4brAZd-3" value="Extends" style="endArrow=block;endSize=16;endFill=0;html=1;entryX=0.5;entryY=1;entryDx=0;entryDy=0;exitX=0.5;exitY=0;exitDx=0;exitDy=0;" edge="1" parent="1" source="E4ltTXrUCnNlTAGxs-kE-2" target="3prIBJ_nW1wlTP4brAZd-1">
          <mxGeometry width="160" relative="1" as="geometry">
            <mxPoint x="280" y="280" as="sourcePoint" />
            <mxPoint x="424" y="180" as="targetPoint" />
          </mxGeometry>
        </mxCell>
      </root>
    </mxGraphModel>
  </diagram>
</mxfile>
